<svg width="60" height="60" viewBox="0 0 60 60" fill="none" xmlns="http://www.w3.org/2000/svg">
<path d="M28.7485 47.1875C23.0351 47.1826 17.414 45.7464 12.3985 43.01C11.7584 42.66 11.245 42.117 10.9313 41.4583C10.6176 40.7997 10.5195 40.0589 10.651 39.3413L11.3573 35.59C11.6523 34.0259 11.946 32.4592 12.2385 30.89C12.476 29.64 12.7135 28.3813 12.9385 27.1338C12.9863 26.8926 13.1269 26.6799 13.33 26.5414C13.5331 26.4029 13.7825 26.3497 14.0244 26.3933C14.2664 26.4369 14.4815 26.5738 14.6235 26.7745C14.7655 26.9752 14.823 27.2236 14.7835 27.4663C14.5585 28.7188 14.321 29.985 14.0823 31.2375C13.7906 32.8042 13.4964 34.3709 13.1998 35.9375L12.4948 39.685C12.4355 40.0148 12.4815 40.3548 12.6265 40.6568C12.7715 40.9589 13.0079 41.2075 13.3023 41.3675C18.0459 43.9604 23.366 45.317 28.772 45.3122C34.178 45.3074 39.4958 43.9413 44.2348 41.34C44.5211 41.1845 44.7502 40.9414 44.8883 40.6463C45.0264 40.3511 45.0663 40.0195 45.0023 39.7L43.5898 32.16C43.5501 31.9183 43.6067 31.6706 43.7474 31.4701C43.888 31.2695 44.1016 31.1319 44.3424 31.0869C44.5832 31.0418 44.832 31.0927 45.0357 31.2288C45.2394 31.3649 45.3818 31.5753 45.4323 31.815L46.8448 39.3525C46.9838 40.0618 46.8926 40.797 46.5846 41.4508C46.2765 42.1047 45.7677 42.6431 45.1323 42.9875C40.1086 45.7368 34.4752 47.1809 28.7485 47.1875Z" fill="#A7A9AC"/>
<path d="M29.9985 34.4002C29.402 34.4002 28.811 34.286 28.2573 34.064L5.43605 24.9352C5.02931 24.774 4.68059 24.494 4.43533 24.1316C4.19006 23.7693 4.05964 23.3415 4.06105 22.904V22.0965C4.05989 21.6592 4.19043 21.2316 4.43568 20.8696C4.68093 20.5075 5.02951 20.2277 5.43605 20.0665L28.2573 10.9377C29.3746 10.4882 30.6225 10.4882 31.7398 10.9377L54.561 20.0665C54.9676 20.2277 55.3162 20.5075 55.5614 20.8696C55.8067 21.2316 55.9372 21.6592 55.936 22.0965V22.904C55.9375 23.3415 55.807 23.7693 55.5618 24.1316C55.3165 24.494 54.9678 24.774 54.561 24.9352L31.7398 34.064C31.1862 34.2864 30.5952 34.3998 29.9985 34.4002ZM29.9985 12.4765C29.6405 12.4767 29.2858 12.5455 28.9535 12.679L6.1323 21.8065C6.07427 21.8296 6.02452 21.8696 5.98952 21.9213C5.95452 21.973 5.93589 22.034 5.93605 22.0965V22.904C5.93564 22.9666 5.95415 23.028 5.98917 23.0799C6.02418 23.1319 6.07407 23.1721 6.1323 23.1952L28.9535 32.3227C29.6241 32.5925 30.373 32.5925 31.0435 32.3227L53.8648 23.1952C53.923 23.1721 53.9729 23.1319 54.0079 23.0799C54.0429 23.028 54.0615 22.9666 54.061 22.904V22.0965C54.0614 22.034 54.0428 21.9729 54.0078 21.9211C53.9728 21.8694 53.9229 21.8294 53.8648 21.8065L31.0435 12.679C30.7114 12.545 30.3567 12.4759 29.9985 12.4752V12.4765Z" fill="#A7A9AC"/>
<path d="M51.2485 39.6875C50.5687 39.6875 49.9041 39.4859 49.3388 39.1082C48.7735 38.7305 48.3329 38.1936 48.0727 37.5655C47.8125 36.9374 47.7445 36.2462 47.8771 35.5794C48.0097 34.9126 48.3371 34.3001 48.8179 33.8193C49.2986 33.3386 49.9111 33.0112 50.5779 32.8786C51.2447 32.7459 51.9359 32.814 52.564 33.0742C53.1921 33.3343 53.729 33.7749 54.1067 34.3402C54.4844 34.9055 54.686 35.5701 54.686 36.25C54.685 37.1614 54.3226 38.0351 53.6781 38.6796C53.0337 39.324 52.1599 39.6865 51.2485 39.6875ZM51.2485 34.6875C50.9395 34.6875 50.6374 34.7791 50.3805 34.9508C50.1235 35.1225 49.9232 35.3665 49.805 35.6521C49.6867 35.9376 49.6558 36.2517 49.7161 36.5548C49.7763 36.8579 49.9252 37.1363 50.1437 37.3549C50.3622 37.5734 50.6406 37.7222 50.9437 37.7825C51.2468 37.8428 51.561 37.8118 51.8465 37.6936C52.132 37.5753 52.376 37.375 52.5477 37.1181C52.7194 36.8611 52.811 36.559 52.811 36.25C52.8107 35.8357 52.646 35.4385 52.353 35.1455C52.0601 34.8526 51.6628 34.6878 51.2485 34.6875Z" fill="#FF6F31"/>
<path d="M53.4398 49.6875H49.0573C48.7297 49.6875 48.4063 49.6138 48.111 49.4721C47.8157 49.3303 47.556 49.1241 47.351 48.8685C47.1461 48.6129 47.0012 48.3146 46.927 47.9955C46.8528 47.6764 46.8512 47.3448 46.9223 47.025L48.9086 38.0975C48.9654 37.8578 49.1144 37.65 49.3232 37.5193C49.5321 37.3885 49.784 37.3452 50.0245 37.3988C50.265 37.4523 50.4748 37.5984 50.6084 37.8055C50.742 38.0125 50.7888 38.2638 50.7386 38.505L48.7511 47.4325C48.7409 47.4783 48.7412 47.5257 48.7519 47.5713C48.7626 47.617 48.7835 47.6596 48.8129 47.6961C48.8423 47.7326 48.8795 47.762 48.9218 47.7822C48.9641 47.8023 49.0104 47.8127 49.0573 47.8125H53.4398C53.4866 47.8125 53.5327 47.802 53.5749 47.7817C53.617 47.7615 53.6541 47.7321 53.6834 47.6956C53.7127 47.6592 53.7334 47.6166 53.744 47.571C53.7546 47.5255 53.7549 47.4782 53.7448 47.4325L51.7586 38.505C51.7299 38.3842 51.7255 38.2588 51.7457 38.1363C51.7659 38.0137 51.8102 37.8964 51.8761 37.7911C51.9421 37.6859 52.0282 37.5947 52.1297 37.523C52.2311 37.4514 52.3457 37.4005 52.467 37.3736C52.5882 37.3466 52.7136 37.3439 52.8359 37.3658C52.9581 37.3877 53.0748 37.4336 53.1792 37.501C53.2835 37.5683 53.3734 37.6558 53.4437 37.7582C53.514 37.8606 53.5632 37.9759 53.5886 38.0975L55.5748 47.025C55.6459 47.3448 55.6443 47.6764 55.5701 47.9955C55.4959 48.3146 55.351 48.6129 55.1461 48.8685C54.9412 49.1241 54.6814 49.3303 54.3861 49.4721C54.0908 49.6138 53.7674 49.6875 53.4398 49.6875ZM51.2473 34.6875C51.0257 34.6873 50.8113 34.6086 50.6422 34.4654C50.4731 34.3221 50.3602 34.1236 50.3236 33.905L49.1786 27.0338L32.3023 23.4175C32.0591 23.3655 31.8466 23.2189 31.7115 23.0102C31.5763 22.8014 31.5296 22.5476 31.5817 22.3044C31.6337 22.0612 31.7802 21.8487 31.989 21.7135C32.1978 21.5784 32.4516 21.5317 32.6948 21.5838L50.1948 25.3338C50.3788 25.3731 50.5466 25.4668 50.6766 25.6028C50.8065 25.7388 50.8926 25.9107 50.9236 26.0963L52.1736 33.5963C52.2144 33.8414 52.1563 34.0927 52.0119 34.295C51.8675 34.4973 51.6487 34.634 51.4036 34.675C51.3519 34.6834 51.2996 34.6876 51.2473 34.6875Z" fill="#FF6F31"/>
<path d="M16.8745 39.688C16.8352 39.6879 16.796 39.6854 16.757 39.6805C16.5104 39.6496 16.2861 39.5221 16.1335 39.3259C15.9809 39.1297 15.9125 38.8809 15.9432 38.6343L16.5682 33.6343C16.5808 33.5099 16.6181 33.3894 16.678 33.2796C16.7378 33.1699 16.819 33.0733 16.9167 32.9954C17.0145 32.9175 17.1268 32.8599 17.2471 32.8261C17.3674 32.7922 17.4933 32.7828 17.6173 32.7983C17.7413 32.8138 17.861 32.8539 17.9692 32.9163C18.0775 32.9787 18.1722 33.0622 18.2478 33.1617C18.3233 33.2613 18.3782 33.375 18.4092 33.496C18.4402 33.6171 18.4467 33.7432 18.4282 33.8668L17.8032 38.8668C17.7749 39.0933 17.665 39.3016 17.494 39.4528C17.323 39.604 17.1027 39.6877 16.8745 39.688Z" fill="#A7A9AC"/>
</svg>
