<svg width="60" height="60" viewBox="0 0 60 60" fill="none" xmlns="http://www.w3.org/2000/svg">
<path d="M52.4099 17.0295C52.9393 17.0295 53.2923 16.6765 53.2923 16.1471V11.1177C53.2923 10.6765 52.8511 10.2354 52.4099 10.2354H47.3805C46.8511 10.2354 46.4981 10.5883 46.4981 11.1177C46.4981 11.6471 46.8511 12.0001 47.3805 12.0001H50.1158L36.4393 24.1765C35.9099 23.7354 35.204 23.4706 34.4981 23.4706C33.7923 23.4706 33.1746 23.7354 32.6452 24.0883L26.9981 19.5883C27.0864 19.3236 27.0864 19.0589 27.0864 18.7942C27.0864 17.1177 25.7628 15.7942 24.0864 15.7942C22.4099 15.7942 21.0864 17.1177 21.0864 18.7942C21.0864 19.2354 21.1746 19.6765 21.3511 20.0295L14.1158 27.2648C13.7628 27.0883 13.3217 27.0001 12.8805 27.0001C11.204 27.0001 9.88049 28.3236 9.88049 30.0001C9.88049 31.6765 11.204 33.0001 12.8805 33.0001C14.557 33.0001 15.8805 31.6765 15.8805 30.0001C15.8805 29.3824 15.704 28.853 15.4393 28.4118L22.5864 21.353C23.0276 21.6177 23.557 21.7942 24.1746 21.7942C24.8805 21.7942 25.5864 21.5295 26.1158 21.0883L31.6746 25.5883C31.5864 25.853 31.4981 26.2059 31.4981 26.4706C31.4981 28.1471 32.8217 29.4706 34.4981 29.4706C36.1746 29.4706 37.4981 28.1471 37.4981 26.4706C37.4981 26.2059 37.4099 25.9412 37.4099 25.6765L51.5276 13.0589V16.0589C51.5276 16.5883 51.9687 17.0295 52.4099 17.0295ZM12.7923 31.2354C12.0864 31.2354 11.557 30.7059 11.557 30.0001C11.557 29.2942 12.0864 28.7648 12.7923 28.7648C13.4981 28.7648 14.1158 29.2942 14.1158 30.0001C14.1158 30.7059 13.4981 31.2354 12.7923 31.2354ZM24.0864 20.0295C23.3805 20.0295 22.8511 19.5001 22.8511 18.7942C22.8511 18.0883 23.3805 17.5589 24.0864 17.5589C24.7923 17.5589 25.3217 18.0883 25.3217 18.7942C25.3217 19.4118 24.7923 20.0295 24.0864 20.0295ZM34.4981 27.7059C33.7923 27.7059 33.2628 27.1765 33.2628 26.4706C33.2628 25.7648 33.7923 25.2354 34.4981 25.2354C35.204 25.2354 35.7334 25.7648 35.7334 26.4706C35.7334 27.1765 35.204 27.7059 34.4981 27.7059Z" fill="#FF6F31"/>
<path d="M48.9687 45.1763C54.0864 45.1763 58.2334 41.0293 58.2334 35.9116C58.2334 31.1469 54.5275 26.9999 49.5864 26.6469C50.0275 24.794 49.9393 22.8528 49.2334 20.9999C49.0569 20.5587 48.5275 20.294 48.0864 20.4704C47.6452 20.6469 47.3805 21.1763 47.5569 21.6175C48.2628 23.3822 48.2628 25.4116 47.5569 27.1763C47.4687 27.441 47.4687 27.794 47.6452 28.0587C47.8217 28.3234 48.0864 28.4116 48.4393 28.4116C52.9393 28.0587 56.4687 31.6763 56.4687 35.9116C56.4687 40.0587 53.1158 43.4116 48.9687 43.4116H45.9687V30.6175C45.9687 30.0881 45.6158 29.7352 45.0864 29.7352H40.3217C39.7922 29.7352 39.4393 30.0881 39.4393 30.6175V50.7351H36.7922V35.8234C36.7922 35.294 36.4393 34.941 35.9099 34.941H31.1452C30.6158 34.941 30.2628 35.294 30.2628 35.8234V50.7351H27.6158V30.3528C27.6158 29.8234 27.2628 29.4704 26.7334 29.4704H22.0569C21.5275 29.4704 21.1746 29.8234 21.1746 30.3528V50.7351H18.5275V38.8234C18.5275 38.294 18.1746 37.941 17.6452 37.941H12.8805C12.3511 37.941 11.9981 38.294 11.9981 38.8234V42.8822H10.7628C6.96871 42.8822 3.79224 40.0587 3.52754 36.441C3.35107 34.0587 4.23342 31.8528 5.99813 30.2646C6.1746 30.0881 6.35107 29.8234 6.26283 29.5587C5.82166 25.5881 8.90989 21.6175 13.3217 21.441C13.8511 21.441 14.204 20.9999 14.1158 20.4704C13.5864 14.5587 18.1746 9.26456 24.3511 9.26456C29.3805 9.26456 33.704 12.8822 34.4981 17.8234C34.5864 18.441 35.3805 18.794 35.9099 18.3528C37.2334 17.3822 38.7334 16.8528 40.4099 16.8528C40.9393 16.8528 41.2922 16.4999 41.2922 15.9704C41.2922 15.441 40.9393 15.0881 40.4099 15.0881C38.8217 15.0881 37.3217 15.441 35.9981 16.2352C34.5864 11.0293 29.8217 7.41162 24.3511 7.41162C17.557 7.41162 12.1746 12.9704 12.2628 19.6763C7.40989 20.3822 4.05695 24.7057 4.32166 29.294C2.38048 31.2352 1.40989 33.8822 1.58636 36.6175C1.9393 41.1175 5.90989 44.6469 10.5864 44.6469H11.8217V50.8234H10.2334C9.70401 50.8234 9.35107 51.1763 9.35107 51.7057C9.35107 52.2351 9.70401 52.5881 10.2334 52.5881H47.3805C47.9099 52.5881 48.2628 52.2351 48.2628 51.7057C48.2628 51.1763 47.9099 50.8234 47.3805 50.8234H45.7922V45.1763H48.9687ZM13.7628 50.8234V39.7057H16.7628V50.7351H13.7628V50.8234ZM22.9393 50.8234V31.2352H25.9393V50.7351H22.9393V50.8234ZM32.0275 50.8234V36.7057H35.0275V50.7351H32.0275V50.8234ZM41.204 50.8234V31.4999H44.204V50.7351H41.204V50.8234Z" fill="#A7A9AC"/>
</svg>
