<svg width="60" height="60" viewBox="0 0 60 60" fill="none" xmlns="http://www.w3.org/2000/svg">
<g clip-path="url(#clip0_1_4159)">
<path d="M58.9668 33.16C58.7938 32.906 58.5612 32.6982 58.2895 32.5546C58.0177 32.4111 57.715 32.3361 57.4077 32.3362H45.2626C44.7823 32.3362 44.3377 32.5535 44.0363 32.9409L41.0967 36.8418L2.16125 36.5994H2.15165C1.93049 36.5985 1.71213 36.6488 1.51357 36.7462C1.315 36.8435 1.14159 36.9854 1.00684 37.1608C0.869751 37.3365 0.775383 37.5417 0.731189 37.7601C0.686996 37.9785 0.694186 38.2042 0.752192 38.4194L3.77844 49.8186C4.13223 51.1515 5.34254 52.0824 6.72172 52.0824H50.352C51.6134 52.0824 52.7264 51.3237 53.187 50.1494L59.1645 34.9122C59.2769 34.6262 59.3176 34.317 59.2832 34.0116C59.2487 33.7062 59.1401 33.4138 58.9668 33.16ZM2.06774 37.9826C2.07739 37.9695 2.09008 37.9588 2.10474 37.9517C2.11939 37.9445 2.13557 37.941 2.15188 37.9414H2.1527L41.4254 38.186H41.4295C41.5334 38.186 41.6358 38.1618 41.7288 38.1155C41.8218 38.0692 41.9027 38.0018 41.9653 37.9189L45.1014 33.757C45.1206 33.7325 45.1451 33.7127 45.173 33.6991C45.2009 33.6854 45.2315 33.6782 45.2626 33.6781H57.4078C57.5911 33.6781 57.7552 33.7648 57.8584 33.9161C57.9615 34.0674 57.9822 34.2517 57.9153 34.4224L54.5905 42.8976H3.32926L2.04899 38.0755C2.04442 38.0596 2.04375 38.0429 2.04701 38.0268C2.05027 38.0106 2.05738 37.9955 2.06774 37.9826ZM51.9378 49.6595C51.6801 50.3165 51.0577 50.7408 50.352 50.7408H6.72172C6.34615 50.7406 5.98116 50.6163 5.68345 50.3873C5.38573 50.1584 5.17193 49.8376 5.07524 49.4746L3.6854 44.2395H54.0641L51.9378 49.6595ZM35.8568 29.8599H35.0607C34.4029 29.8599 33.8679 29.3248 33.8679 28.6671C33.8679 28.4891 33.7972 28.3185 33.6714 28.1927C33.5455 28.0668 33.3749 27.9962 33.197 27.9962C33.019 27.9962 32.8484 28.0668 32.7226 28.1927C32.5967 28.3185 32.5261 28.4891 32.5261 28.6671C32.5261 30.0647 33.663 31.2017 35.0607 31.2017H35.8568C37.415 31.2017 38.6826 29.9341 38.6826 28.3758C38.6826 26.9597 37.6357 25.7835 36.2752 25.5808V24.0385L38.191 21.9783C38.5075 21.6388 38.6832 21.1917 38.6826 20.7276V18.7529C38.6826 17.9833 38.0565 17.3571 37.2868 17.3571H36.2752V12.5968L49.261 17.8755V27.0551H48.2379C46.9406 27.0551 45.8853 28.1106 45.8853 29.4079V30.3248C45.8853 30.4129 45.9026 30.5001 45.9364 30.5815C45.9701 30.6629 46.0195 30.7369 46.0818 30.7992C46.1441 30.8615 46.2181 30.9109 46.2995 30.9446C46.3809 30.9784 46.4681 30.9957 46.5562 30.9957C46.6443 30.9957 46.7316 30.9784 46.813 30.9446C46.8944 30.9109 46.9683 30.8615 47.0306 30.7992C47.0929 30.7369 47.1424 30.6629 47.1761 30.5815C47.2098 30.5001 47.2271 30.4129 47.2271 30.3248V29.4079C47.2271 28.8506 47.6805 28.3969 48.2379 28.3969C52.9463 28.3974 54.4776 28.3969 54.8352 28.3969C55.3948 28.3969 55.8505 28.8506 55.8505 29.4079V30.3248C55.8505 30.4129 55.8678 30.5001 55.9015 30.5815C55.9352 30.6629 55.9846 30.7369 56.0469 30.7992C56.1092 30.8615 56.1832 30.9109 56.2646 30.9446C56.346 30.9784 56.4333 30.9957 56.5214 30.9957C56.6095 30.9957 56.6967 30.9784 56.7781 30.9446C56.8595 30.9109 56.9335 30.8615 56.9958 30.7992C57.0581 30.7369 57.1075 30.6629 57.1412 30.5815C57.1749 30.5001 57.1923 30.4129 57.1923 30.3248V29.4079C57.1923 28.1106 56.1348 27.0551 54.8352 27.0551H53.8128V10.1934C53.8128 8.93854 52.7918 7.91748 51.5369 7.91748C50.2821 7.91748 49.261 8.93854 49.261 10.1934V10.8745L35.7235 8.42877C35.3166 8.35424 34.9333 8.66748 34.9333 9.089V17.3572H33.9218C33.1522 17.3572 32.5259 17.9833 32.5259 18.753V20.7277C32.5259 21.1933 32.7007 21.6378 33.0178 21.9787L34.9333 24.0386V26.2208C34.9333 26.3089 34.9506 26.3961 34.9844 26.4775C35.0181 26.5589 35.0675 26.6329 35.1298 26.6952C35.1921 26.7575 35.2661 26.8069 35.3475 26.8406C35.4289 26.8743 35.5161 26.8917 35.6042 26.8917H35.8566C36.675 26.8917 37.3406 27.5575 37.3406 28.3758C37.3406 29.1942 36.6751 29.8599 35.8568 29.8599ZM50.6028 10.1934C50.6028 9.67846 51.0219 9.25928 51.5369 9.25928C52.0518 9.25928 52.471 9.67834 52.471 10.1934V27.0553H50.6028V10.1934ZM36.2752 9.89197L49.261 12.2379V16.4269L36.2752 11.1485V9.89197ZM33.8679 20.7277V18.753C33.8679 18.7233 33.8921 18.6991 33.9218 18.6991H37.2868C37.3165 18.6991 37.3407 18.7233 37.3407 18.753V20.7277C37.3408 20.8528 37.2934 20.9733 37.2082 21.0649L35.6042 22.7895L34.0003 21.0649C33.9151 20.9733 33.8678 20.8528 33.8679 20.7277Z" fill="#A7A9AC"/>
<path d="M45.8204 36.5257H46.9854C47.0735 36.5257 47.1607 36.5083 47.2421 36.4746C47.3235 36.4409 47.3975 36.3915 47.4598 36.3292C47.5221 36.2669 47.5715 36.1929 47.6052 36.1115C47.6389 36.0302 47.6563 35.9429 47.6563 35.8548C47.6563 35.7667 47.6389 35.6795 47.6052 35.5981C47.5715 35.5167 47.5221 35.4427 47.4598 35.3804C47.3975 35.3181 47.3235 35.2687 47.2421 35.235C47.1607 35.2013 47.0735 35.1839 46.9854 35.1839H45.8204C45.4498 35.1839 45.1495 35.4843 45.1495 35.8548C45.1495 36.2254 45.4498 36.5257 45.8204 36.5257ZM49.781 36.5257H50.946C51.0341 36.5257 51.1213 36.5083 51.2027 36.4746C51.2841 36.4409 51.3581 36.3915 51.4204 36.3292C51.4827 36.2669 51.5321 36.1929 51.5658 36.1115C51.5995 36.0302 51.6169 35.9429 51.6169 35.8548C51.6169 35.7667 51.5995 35.6795 51.5658 35.5981C51.5321 35.5167 51.4827 35.4427 51.4204 35.3804C51.3581 35.3181 51.2841 35.2687 51.2027 35.235C51.1213 35.2013 51.0341 35.1839 50.946 35.1839H49.781C49.4103 35.1839 49.1101 35.4843 49.1101 35.8548C49.1101 36.2254 49.4103 36.5257 49.781 36.5257ZM53.7414 36.5257H54.9063C54.9944 36.5257 55.0817 36.5083 55.1631 36.4746C55.2445 36.4409 55.3184 36.3915 55.3807 36.3292C55.443 36.2669 55.4924 36.1929 55.5261 36.1115C55.5599 36.0302 55.5772 35.9429 55.5772 35.8548C55.5772 35.7667 55.5599 35.6795 55.5261 35.5981C55.4924 35.5167 55.443 35.4427 55.3807 35.3804C55.3184 35.3181 55.2445 35.2687 55.1631 35.235C55.0817 35.2013 54.9944 35.1839 54.9063 35.1839H53.7414C53.6533 35.1839 53.566 35.2013 53.4846 35.235C53.4032 35.2687 53.3293 35.3181 53.267 35.3804C53.2047 35.4427 53.1552 35.5167 53.1215 35.5981C53.0878 35.6795 53.0705 35.7667 53.0705 35.8548C53.0705 35.9429 53.0878 36.0302 53.1215 36.1115C53.1552 36.1929 53.2047 36.2669 53.267 36.3292C53.3293 36.3915 53.4032 36.4409 53.4846 36.4746C53.566 36.5083 53.6533 36.5257 53.7414 36.5257ZM4.5437 35.2718C4.63181 35.2718 4.71906 35.2545 4.80046 35.2208C4.88187 35.1871 4.95583 35.1376 5.01813 35.0753C5.08043 35.013 5.12985 34.9391 5.16356 34.8577C5.19727 34.7763 5.21462 34.689 5.2146 34.6009V30.6873L12.1384 30.6884V34.6547C12.1384 34.7428 12.1557 34.83 12.1894 34.9114C12.2231 34.9929 12.2726 35.0668 12.3349 35.1291C12.3972 35.1914 12.4711 35.2408 12.5525 35.2745C12.6339 35.3083 12.7212 35.3256 12.8093 35.3256C12.8974 35.3256 12.9846 35.3083 13.066 35.2745C13.1475 35.2408 13.2214 35.1914 13.2837 35.1291C13.346 35.0668 13.3954 34.9929 13.4291 34.9114C13.4629 34.83 13.4802 34.7428 13.4802 34.6547V30.6884H20.404V34.7038C20.404 34.8817 20.4747 35.0524 20.6005 35.1782C20.7263 35.304 20.8969 35.3747 21.0749 35.3747C21.2528 35.3747 21.4235 35.304 21.5493 35.1782C21.6751 35.0524 21.7458 34.8817 21.7458 34.7038V30.6884L28.6696 30.6873V34.7576C28.6695 34.8457 28.6869 34.9329 28.7206 35.0143C28.7543 35.0957 28.8037 35.1697 28.866 35.232C28.9283 35.2943 29.0023 35.3437 29.0837 35.3774C29.1651 35.4111 29.2524 35.4285 29.3405 35.4285C29.4286 35.4285 29.5158 35.4111 29.5972 35.3774C29.6786 35.3437 29.7526 35.2943 29.8149 35.232C29.8772 35.1697 29.9266 35.0957 29.9603 35.0143C29.994 34.9329 30.0114 34.8457 30.0114 34.7576V30.0164C30.0114 29.9283 29.994 29.8411 29.9603 29.7596C29.9266 29.6782 29.8772 29.6043 29.8149 29.542C29.7526 29.4797 29.6786 29.4303 29.5972 29.3965C29.5158 29.3628 29.4286 29.3455 29.3405 29.3455H25.8778V22.6963C25.8778 22.6082 25.8605 22.5209 25.8268 22.4395C25.7931 22.3581 25.7436 22.2842 25.6813 22.2219C25.619 22.1596 25.5451 22.1101 25.4637 22.0764C25.3823 22.0427 25.295 22.0254 25.2069 22.0254H8.67456C8.58645 22.0254 8.4992 22.0427 8.4178 22.0764C8.3364 22.1101 8.26243 22.1596 8.20013 22.2219C8.13783 22.2842 8.08841 22.3581 8.0547 22.4395C8.02099 22.5209 8.00365 22.6082 8.00366 22.6963V29.3455H4.5437C4.45559 29.3455 4.36835 29.3628 4.28694 29.3965C4.20554 29.4303 4.13157 29.4797 4.06927 29.542C4.00697 29.6043 3.95755 29.6782 3.92384 29.7596C3.89013 29.8411 3.87279 29.9283 3.8728 30.0164V34.6009C3.87279 34.689 3.89013 34.7763 3.92384 34.8577C3.95755 34.9391 4.00697 35.013 4.06927 35.0753C4.13157 35.1376 4.20554 35.1871 4.28694 35.2208C4.36835 35.2545 4.45559 35.2718 4.5437 35.2718ZM24.536 29.3455H17.6117V23.3672H24.536V29.3455ZM9.34558 23.3672H16.2701V29.3455H9.34558V23.3672Z" fill="#FF6F31"/>
</g>
<defs>
<clipPath id="clip0_1_4159">
<rect width="60" height="60" fill="white" transform="translate(-0.00146484)"/>
</clipPath>
</defs>
</svg>
