<svg width="60" height="60" viewBox="0 0 60 60" fill="none" xmlns="http://www.w3.org/2000/svg">
<path d="M57.8489 10.587L55.0364 7.77449C54.8606 7.59866 54.6222 7.49985 54.3735 7.4998H13.1235V5.6248C13.1235 5.37618 13.0247 5.13776 12.8488 4.96199L10.0363 2.14949C9.86054 1.97373 9.62213 1.875 9.37354 1.875C9.12494 1.875 8.88653 1.97373 8.71072 2.14949L5.89822 4.96199C5.7224 5.13776 5.62359 5.37618 5.62354 5.6248V7.4998H2.81104C2.56239 7.4998 2.32394 7.59857 2.14812 7.77439C1.97231 7.9502 1.87354 8.18866 1.87354 8.4373V14.0623C1.87354 14.3109 1.97231 14.5494 2.14812 14.7252C2.32394 14.901 2.56239 14.9998 2.81104 14.9998H5.62354V57.1873C5.62354 57.4359 5.72231 57.6744 5.89812 57.8502C6.07394 58.026 6.3124 58.1248 6.56104 58.1248C6.80968 58.1248 7.04813 58.026 7.22395 57.8502C7.39976 57.6744 7.49854 57.4359 7.49854 57.1873V6.01293L9.37354 4.13792L11.2485 6.01293V57.1873C11.2485 57.4359 11.3473 57.6744 11.5231 57.8502C11.6989 58.026 11.9374 58.1248 12.186 58.1248C12.4347 58.1248 12.6731 58.026 12.8489 57.8502C13.0248 57.6744 13.1235 57.4359 13.1235 57.1873V14.9998H22.4985V18.7498H19.686C18.9403 18.7505 18.2254 19.0471 17.6981 19.5744C17.1708 20.1017 16.8743 20.8166 16.8735 21.5623V47.8123C16.8743 48.558 17.1708 49.2729 17.6981 49.8002C18.2254 50.3275 18.9403 50.6241 19.686 50.6248H51.561C52.3067 50.6241 53.0217 50.3275 53.549 49.8002C54.0762 49.2729 54.3728 48.558 54.3735 47.8123V21.5623C54.3728 20.8166 54.0762 20.1017 53.549 19.5744C53.0217 19.0471 52.3067 18.7505 51.561 18.7498H48.7485V14.9998H54.3735C54.6222 14.9997 54.8606 14.9009 55.0364 14.7251L57.8489 11.9126C58.0246 11.7368 58.1233 11.4984 58.1233 11.2498C58.1233 11.0012 58.0246 10.7628 57.8489 10.587ZM3.74854 13.1248V9.3748H5.62354V13.1248H3.74854ZM52.4985 21.5623V47.8123C52.4983 48.0609 52.3994 48.2992 52.2237 48.4749C52.0479 48.6507 51.8096 48.7496 51.561 48.7498H19.686C19.4375 48.7496 19.1992 48.6507 19.0234 48.4749C18.8476 48.2992 18.7488 48.0609 18.7485 47.8123V21.5623C18.7488 21.3137 18.8476 21.0754 19.0234 20.8997C19.1992 20.7239 19.4375 20.625 19.686 20.6248H51.561C51.8096 20.625 52.0479 20.7239 52.2237 20.8997C52.3994 21.0754 52.4983 21.3137 52.4985 21.5623ZM46.8735 18.7498H24.3735V14.9998H46.8735V18.7498ZM53.9854 13.1248H13.1235V9.3748H53.9854L55.8604 11.2498L53.9854 13.1248Z" fill="#A7A9AC"/>
<path fill-rule="evenodd" clip-rule="evenodd" d="M24.962 35.8383C25.1107 36.0297 25.3279 36.1559 25.5678 36.1903C25.8077 36.2248 26.0517 36.1648 26.2482 36.023V45.937C26.2482 46.1857 26.347 46.4241 26.5228 46.6C26.6986 46.7758 26.9371 46.8745 27.1857 46.8745H44.0063C44.255 46.8745 44.4934 46.7758 44.6693 46.6C44.8451 46.4241 44.9438 46.1857 44.9438 45.937V35.9883L44.9701 36.0089C45.1671 36.1605 45.4161 36.2277 45.6626 36.1957C45.9091 36.1637 46.1328 36.0351 46.2845 35.8383L48.5532 32.8936C48.6284 32.7961 48.6837 32.6846 48.7158 32.5657C48.7479 32.4468 48.7563 32.3227 48.7405 32.2006C48.7246 32.0784 48.6849 31.9606 48.6235 31.8538C48.5621 31.747 48.4802 31.6534 48.3826 31.5783L37.3379 23.0827C36.8461 22.7048 36.2434 22.5 35.6232 22.5C35.0031 22.5 34.4003 22.7048 33.9085 23.0827L22.8648 31.5783C22.7671 31.6533 22.6852 31.7469 22.6237 31.8537C22.5622 31.9604 22.5223 32.0782 22.5064 32.2004C22.4905 32.3225 22.4988 32.4466 22.5308 32.5656C22.5629 32.6845 22.6181 32.796 22.6932 32.8936L24.962 35.8383ZM35.0517 24.5686C35.2159 24.4429 35.4169 24.3748 35.6236 24.3748C35.8304 24.3748 36.0314 24.4429 36.1955 24.5686L46.4958 32.4924L45.3717 33.9511L36.1955 26.8918C36.0316 26.7656 35.8305 26.6971 35.6236 26.6971C35.4167 26.6971 35.2157 26.7656 35.0517 26.8918L25.8755 33.9511L24.7505 32.4924L35.0517 24.5686ZM39.3736 44.9996H43.0692V34.5455L35.6236 28.8165L28.1236 34.5877V44.9996H31.8192V37.4996C31.8192 37.2509 31.918 37.0125 32.0938 36.8367C32.2696 36.6609 32.5081 36.5621 32.7567 36.5621H38.4361C38.6848 36.5621 38.9232 36.6609 39.099 36.8367C39.2748 37.0125 39.3736 37.2509 39.3736 37.4996V44.9996ZM33.6942 44.9996H37.4986V38.4371H33.6942V44.9996Z" fill="#FF6F31"/>
</svg>
